<svg id="Layer_1" data-name="Layer 1" xmlns="http://www.w3.org/2000/svg" xmlns:xlink="http://www.w3.org/1999/xlink" viewBox="0 0 361.33 218.12"><defs><style>.cls-1,.cls-6{fill:none;}.cls-2{clip-path:url(#clip-path);}.cls-3,.cls-4{fill:#fff;}.cls-3{opacity:0;}.cls-5{clip-path:url(#clip-path-2);}.cls-6{stroke:#d9d9d8;stroke-linejoin:round;}.cls-7{clip-path:url(#clip-path-3);}.cls-8{fill:#9ad4be;}.cls-9{clip-path:url(#clip-path-4);}.cls-10,.cls-12{font-size:9px;}.cls-10,.cls-12,.cls-14,.cls-16{fill:#231f20;}.cls-10,.cls-12,.cls-14,.cls-16,.cls-32{font-family:MyriadPro-Regular, Myriad Pro;}.cls-10,.cls-13{letter-spacing:0.06em;}.cls-11{letter-spacing:0em;}.cls-14{font-size:14px;letter-spacing:-0.02em;}.cls-15{clip-path:url(#clip-path-14);}.cls-16,.cls-32{font-size:8px;}.cls-17{letter-spacing:-0.07em;}.cls-18{letter-spacing:0em;}.cls-19{letter-spacing:-0.02em;}.cls-20{letter-spacing:0.02em;}.cls-21{letter-spacing:0em;}.cls-22{letter-spacing:0em;}.cls-23{letter-spacing:-0.01em;}.cls-24{letter-spacing:-0.01em;}.cls-25{letter-spacing:-0.01em;}.cls-26{letter-spacing:-0.01em;}.cls-27{letter-spacing:0em;}.cls-28{letter-spacing:0em;}.cls-29{letter-spacing:0em;}.cls-30{letter-spacing:0em;}.cls-31{letter-spacing:0em;}.cls-32{fill:#6d6e71;}.cls-33{letter-spacing:0.01em;}.cls-34{letter-spacing:-0.03em;}.cls-35{letter-spacing:-0.01em;}.cls-36{letter-spacing:0.01em;}.cls-37{letter-spacing:-0.01em;}.cls-38{letter-spacing:0.01em;}.cls-39{letter-spacing:-0.01em;}.cls-40{letter-spacing:-0.01em;}.cls-41{letter-spacing:-0.01em;}.cls-42{letter-spacing:-0.01em;}.cls-43{letter-spacing:0.03em;}.cls-44{letter-spacing:0.01em;}.cls-45{letter-spacing:0.02em;}.cls-46{letter-spacing:-0.05em;}.cls-47{letter-spacing:-0.08em;}.cls-48{letter-spacing:0em;}.cls-49{letter-spacing:-0.01em;}</style><clipPath id="clip-path" transform="translate(-236.67 -153)"><rect class="cls-1" x="236.67" y="154.12" width="360" height="217"/></clipPath><clipPath id="clip-path-2" transform="translate(-236.67 -153)"><rect class="cls-1" x="238" y="153" width="360" height="216"/></clipPath><clipPath id="clip-path-3" transform="translate(-236.67 -153)"><rect class="cls-1" x="283" y="193" width="302" height="77"/></clipPath><clipPath id="clip-path-4" transform="translate(-236.67 -153)"><rect class="cls-1" x="238" y="154.62" width="360" height="216"/></clipPath><clipPath id="clip-path-14" transform="translate(-236.67 -153)"><rect class="cls-1" x="238" y="153" width="360" height="217"/></clipPath></defs><title>phillyimmigrationdata</title><g class="cls-2"><rect class="cls-3" y="1.12" width="360" height="217"/><rect class="cls-4" y="2.12" width="360" height="215"/></g><g class="cls-5"><path class="cls-6" d="M283.5,193.5h302m-302,10h302m-302,9h302m-302,10h302m-302,9h302m-302,10h302m-302,9h302m-302,10h302" transform="translate(-236.67 -153)"/></g><g class="cls-7"><path class="cls-8" d="M517.12,253.62h24.67v16H517.12ZM460,265H484.7v5H460Zm-39.65-21h24.67v26H420.39ZM376,250H400.7v20H376Zm-57-46h24.67v66H319Z" transform="translate(-236.67 -153)"/></g><g class="cls-9"><line class="cls-6" x1="46.83" y1="118.12" x2="348.83" y2="118.13"/></g><g class="cls-5"><text class="cls-10" transform="translate(15.01 109.86)">2000<tspan class="cls-11" x="20.45" y="0">0</tspan></text></g><g class="cls-5"><text class="cls-10" transform="translate(15.01 100.37)">4000<tspan class="cls-11" x="20.45" y="0">0</tspan></text></g><g class="cls-5"><text class="cls-10" transform="translate(15.01 90.88)">6000<tspan class="cls-11" x="20.45" y="0">0</tspan></text></g><g class="cls-5"><text class="cls-10" transform="translate(15.01 81.39)">8000<tspan class="cls-11" x="20.45" y="0">0</tspan></text></g><g class="cls-5"><text class="cls-12" transform="translate(10.76 71.9)"><tspan class="cls-13">10000</tspan><tspan x="25.56" y="0">0</tspan></text></g><g class="cls-5"><text class="cls-12" transform="translate(10.76 62.41)"><tspan class="cls-13">12000</tspan><tspan x="25.56" y="0">0</tspan></text></g><g class="cls-5"><text class="cls-12" transform="translate(10.76 52.92)"><tspan class="cls-13">14000</tspan><tspan x="25.56" y="0">0</tspan></text></g><g class="cls-5"><text class="cls-12" transform="translate(10.76 43.43)"><tspan class="cls-13">16000</tspan><tspan x="25.56" y="0">0</tspan></text></g><g class="cls-5"><text class="cls-14" transform="translate(58.15 25.08)">Region of Foreign Born Philadelphia Population</text></g><g class="cls-15"><rect class="cls-6" x="1.83" y="0.5" width="359" height="216"/></g><text class="cls-16" transform="translate(70.94 124.77)"><tspan class="cls-17">T</tspan><tspan x="3.41" y="0">otal </tspan><tspan class="cls-18" x="17.89" y="0">e</tspan><tspan class="cls-19" x="21.87" y="0">x</tspan><tspan x="25.46" y="0">cluding </tspan><tspan x="0" y="9.6">bi</tspan><tspan class="cls-20" x="6.42" y="9.6">r</tspan><tspan x="9.23" y="9.6">th </tspan><tspan class="cls-21" x="18.02" y="9.6">a</tspan><tspan class="cls-22" x="21.84" y="9.6">t sea</tspan></text><text class="cls-16" transform="translate(140.2 124.77)"><tspan class="cls-23">E</tspan><tspan x="3.88" y="0">u</tspan><tspan class="cls-24" x="8.29" y="0">r</tspan><tspan x="10.82" y="0">ope</tspan></text><text class="cls-16" transform="translate(189.29 124.77)"><tspan class="cls-25">A</tspan><tspan x="4.85" y="0">sia</tspan></text><text class="cls-16" transform="translate(225.77 125.55)"><tspan class="cls-26">A</tspan><tspan x="4.84" y="0">f</tspan><tspan class="cls-27" x="7.18" y="0">r</tspan><tspan x="9.82" y="0">ica</tspan></text><text class="cls-16" transform="translate(271.06 125.55)">L<tspan class="cls-28" x="3.78" y="0">a</tspan><tspan x="7.6" y="0">tin </tspan><tspan class="cls-29" x="18.26" y="0">A</tspan><tspan x="23.13" y="0">me</tspan><tspan class="cls-30" x="33.81" y="0">r</tspan><tspan class="cls-31" x="36.46" y="0">ica</tspan></text><text class="cls-32" transform="translate(96.33 156.01)"><tspan class="cls-33">S</tspan><tspan x="3.99" y="0">ou</tspan><tspan class="cls-24" x="12.79" y="0">r</tspan><tspan class="cls-25" x="15.33" y="0">c</tspan><tspan x="18.86" y="0">e: </tspan><tspan class="cls-34" x="26.22" y="0">U</tspan><tspan x="31.18" y="0">.S. </tspan><tspan class="cls-35" x="40.13" y="0">C</tspan><tspan x="44.69" y="0">ensus Bu</tspan><tspan class="cls-24" x="74.32" y="0">r</tspan><tspan x="76.85" y="0">eau </tspan><tspan class="cls-33" x="90.82" y="0">S</tspan><tspan x="94.81" y="0">ele</tspan><tspan class="cls-36" x="104.72" y="0">c</tspan><tspan class="cls-25" x="108.41" y="0">t</tspan><tspan x="111.01" y="0">ed Cha</tspan><tspan class="cls-37" x="134.16" y="0">r</tspan><tspan x="136.73" y="0">a</tspan><tspan class="cls-38" x="140.59" y="0">c</tspan><tspan class="cls-25" x="144.28" y="0">t</tspan><tspan x="146.88" y="0">e</tspan><tspan class="cls-27" x="150.88" y="0">r</tspan><tspan x="153.53" y="0">istics of the </tspan><tspan class="cls-39" x="0" y="9.6">f</tspan><tspan x="2.23" y="9.6">o</tspan><tspan class="cls-40" x="6.62" y="9.6">r</tspan><tspan x="9.16" y="9.6">ei</tspan><tspan class="cls-41" x="15.04" y="9.6">g</tspan><tspan x="19.46" y="9.6">n-bo</tspan><tspan class="cls-27" x="35.3" y="9.6">r</tspan><tspan x="37.95" y="9.6">n popul</tspan><tspan class="cls-21" x="63.88" y="9.6">a</tspan><tspan x="67.7" y="9.6">tion </tspan><tspan class="cls-42" x="82.75" y="9.6">b</tspan><tspan x="87.25" y="9.6">y pe</tspan><tspan class="cls-27" x="101.27" y="9.6">r</tspan><tspan x="103.92" y="9.6">iod of e</tspan><tspan class="cls-28" x="128.82" y="9.6">n</tspan><tspan x="133.23" y="9.6">t</tspan><tspan class="cls-43" x="135.88" y="9.6">r</tspan><tspan x="138.69" y="9.6">y i</tspan><tspan class="cls-28" x="146.03" y="9.6">n</tspan><tspan class="cls-25" x="150.44" y="9.6">t</tspan><tspan x="153.04" y="9.6">o the Uni</tspan><tspan class="cls-25" x="183.41" y="9.6">t</tspan><tspan x="186" y="9.6">ed </tspan><tspan class="cls-18" x="0" y="19.2">S</tspan><tspan x="3.92" y="19.2">t</tspan><tspan class="cls-28" x="6.57" y="19.2">a</tspan><tspan class="cls-25" x="10.39" y="19.2">t</tspan><tspan x="12.99" y="19.2">es 2015 </tspan><tspan class="cls-18" x="39.98" y="19.2">A</tspan><tspan x="44.85" y="19.2">me</tspan><tspan class="cls-27" x="55.53" y="19.2">r</tspan><tspan x="58.17" y="19.2">ican </tspan><tspan class="cls-35" x="73.62" y="19.2">C</tspan><tspan x="78.17" y="19.2">ommuni</tspan><tspan class="cls-44" x="106.63" y="19.2">t</tspan><tspan x="109.35" y="19.2">y Su</tspan><tspan class="cls-45" x="123.17" y="19.2">r</tspan><tspan class="cls-24" x="125.98" y="19.2">v</tspan><tspan x="129.75" y="19.2">ey 1</tspan><tspan class="cls-46" x="143.32" y="19.2">-</tspan><tspan class="cls-47" x="145.38" y="19.2">Y</tspan><tspan x="149.1" y="19.2">ear Estim</tspan><tspan class="cls-48" x="179.57" y="19.2">a</tspan><tspan class="cls-49" x="183.4" y="19.2">t</tspan><tspan x="186" y="19.2">es</tspan></text></svg>